<?xml version="1.0" encoding="UTF-8"?>
<svg xmlns="http://www.w3.org/2000/svg" xmlns:xlink="http://www.w3.org/1999/xlink" width="28pt" height="28pt" viewBox="0 0 28 28" version="1.1">
<g id="surface1">
<path style=" stroke:none;fill-rule:nonzero;fill:rgb(100%,100%,100%);fill-opacity:1;" d="M 24.5 12.25 L 15.75 12.25 L 15.75 3.5 C 15.75 2.535156 14.964844 1.75 14 1.75 C 13.035156 1.75 12.25 2.535156 12.25 3.5 L 12.25 12.25 L 3.5 12.25 C 2.535156 12.25 1.75 13.035156 1.75 14 C 1.75 14.964844 2.535156 15.75 3.5 15.75 L 12.25 15.75 L 12.25 24.5 C 12.25 25.464844 13.035156 26.25 14 26.25 C 14.964844 26.25 15.75 25.464844 15.75 24.5 L 15.75 15.75 L 24.5 15.75 C 25.464844 15.75 26.25 14.964844 26.25 14 C 26.25 13.035156 25.464844 12.25 24.5 12.25 Z M 24.5 12.25 "/>
</g>
</svg>
