<svg width="256" height="256"
  xmlns="http://www.w3.org/2000/svg">

  <g>
    <title>background</title>
    <rect fill="none" id="canvas_background" height="402" width="582" y="-1" x="-1"/>
  </g>
  <g>
    <title>Layer 1</title>
    <path id="svg_1" fill-rule="evenodd" fill="#ffffff" d="m52.9999,44l10,0l0,35l7,0l0,9l-24,0l0,-9l7,0l0,-24l-3.9999,4l-5,-5l8.9999,-10zm43.0001,8l120,0l0,24l-120,0l0,-24zm120,64l-120,0l0,24l120,0l0,-24zm-1,65l-120,0l0,24l120,0l0,-24zm-173.2865,-7.472c4.5677,-2.351 9.198,-3.528 14.84,-3.528c3.9934,0 8.007,0.873 11.1952,2.919c3.3264,2.135 5.8424,5.671 5.8424,10.376c0,3.619 -1.4143,6.385 -3.3346,8.355c2.0569,2.05 3.7435,4.988 3.7435,8.85c0,5.134 -3.3263,8.619 -6.5238,10.549c-3.2487,1.961 -7.2619,2.951 -10.9228,2.951c-5.7428,0 -11.5693,-2.063 -16.5534,-5l4.8572,-8c3.5148,2.071 7.6464,3 11.6962,3c2.1285,0 4.6765,-0.535 6.2752,-1.5c1.0629,-0.642 1.3522,-1.358 1.4305,-1.719c0.0802,-0.37 0.1222,-0.903 0.0267,-1.281c-0.1347,-0.533 -0.5513,-1.289 -1.4572,-2c-0.8726,-0.685 -1.8448,-0.842 -2.7757,-0.993c-0.1652,-0.026 -0.3292,-0.053 -0.491,-0.082c-1.0968,-0.198 -2.4768,-0.222 -4.2044,-0.153c-1.8904,0.15 -3.7576,0.226 -5.4184,0.228l-0.0714,0l0,-9.5l0.0738,0c0.9025,-0.003 1.7825,-0.052 2.8055,-0.109l0.0001,0l0.0005,0l0.001,0c0.6144,-0.035 1.2806,-0.072 2.0343,-0.104c1.681,-0.138 3.3575,-0.342 4.8302,-0.608c1.3265,-0.239 2.594,-0.687 3.4121,-1.289c0.3703,-0.272 0.5609,-0.512 0.6621,-0.695c0.0865,-0.157 0.1895,-0.414 0.1895,-0.9c0,-0.59 -0.1938,-1.201 -1.2674,-1.89c-1.2119,-0.778 -3.2885,-1.405 -6.0559,-1.405c-4.1507,0 -7.2918,0.823 -10.4956,2.472l-4.3444,-8.944zm15.0643,-57.528c-2.0548,0 -3.8206,0.493 -5.8883,1.524c-1.6803,0.837 -2.9599,1.582 -4.1023,2.583l-6.0188,-7.707c2.0576,-1.801 4.1824,-2.969 6.0977,-3.924c3.0322,-1.511 6.1739,-2.476 9.9117,-2.476c4.1425,0 8.2023,1.043 11.3851,3.201c3.2354,2.193 5.8371,5.798 5.8371,10.555c0,8.255 -5.8441,13.497 -12.7237,14.27c-1.3921,0.157 -3.225,0.393 -4.924,0.682c-1.836,0.312 -3.0781,0.616 -3.5544,0.81c-2.0853,0.848 -2.7013,1.603 -2.9108,1.943c-0.217,0.353 -0.4427,0.975 -0.4427,2.539l24.5556,0l0,10l-34,0l0,-10c0,-2.436 0.3222,-5.314 1.9746,-7.999c1.6601,-2.697 4.2354,-4.517 7.4372,-5.819c1.5092,-0.613 3.661,-1.045 5.4439,-1.348c1.9199,-0.326 3.9308,-0.584 5.4236,-0.752c2.9803,-0.335 4.2763,-2.093 4.2763,-4.326c0,-0.487 -0.1966,-1.26 -1.4853,-2.134c-1.3413,-0.909 -3.5315,-1.622 -6.2925,-1.622z" clip-rule="evenodd"/>
  </g>
</svg>