<svg width="48" height="48" xmlns="http://www.w3.org/2000/svg">

 <g>
  <title>background</title>
  <rect fill="none" id="canvas_background" height="402" width="582" y="-1" x="-1"/>
 </g>
 <g>
  <title>Layer 1</title>
  <path id="svg_1" fill="none" d="m0,0l48,0l0,48l-48,0l0,-48z"/>
  <path fill="#ffffff" id="svg_2" d="m14.22,17.05l-2.83,-2.83c-1.8,2.32 -2.91,5 -3.25,7.78l4.04,0c0.29,-1.75 0.97,-3.44 2.04,-4.95zm-2.04,8.95l-4.04,0c0.34,2.78 1.45,5.46 3.25,7.78l2.83,-2.83c-1.07,-1.51 -1.75,-3.2 -2.04,-4.95zm2.02,10.63c2.32,1.81 5.02,2.88 7.8,3.22l0,-4.04c-1.75,-0.29 -3.43,-0.98 -4.93,-2.05l-2.87,2.87zm11.8,-28.49l0,-6.14l-9.1,9.1l9.1,8.9l0,-7.82c5.67,0.95 10,5.88 10,11.82s-4.33,10.87 -10,11.82l0,4.04c7.89,-0.99 14,-7.7 14,-15.86s-6.11,-14.87 -14,-15.86z"/>
 </g>
</svg>